<?xml version="1.0" encoding="UTF-8"?>
<svg xmlns="http://www.w3.org/2000/svg" xmlns:xlink="http://www.w3.org/1999/xlink" width="30px" height="30px" viewBox="0 0 30 30" version="1.1">
<g id="surface1">
<path style=" stroke:none;fill-rule:nonzero;fill:rgb(95.686275%,69.411767%,17.254902%);fill-opacity:1;" d="M 14.984375 22.554688 C 10.808594 22.554688 7.410156 19.160156 7.410156 14.984375 C 7.410156 10.808594 10.808594 7.410156 14.984375 7.410156 C 19.160156 7.410156 22.554688 10.808594 22.554688 14.984375 C 22.554688 19.160156 19.160156 22.554688 14.984375 22.554688 Z M 14.984375 22.554688 "/>
<path style=" stroke:none;fill-rule:nonzero;fill:rgb(95.686275%,69.411767%,17.254902%);fill-opacity:1;" d="M 14.984375 5.945312 C 14.4375 5.945312 13.992188 5.503906 13.992188 4.957031 L 13.992188 1.152344 C 13.992188 0.609375 14.4375 0.164062 14.984375 0.164062 C 15.53125 0.164062 15.972656 0.609375 15.972656 1.152344 L 15.972656 4.957031 C 15.972656 5.503906 15.53125 5.945312 14.984375 5.945312 Z M 14.984375 5.945312 "/>
<path style=" stroke:none;fill-rule:nonzero;fill:rgb(95.686275%,69.411767%,17.254902%);fill-opacity:1;" d="M 14.984375 29.800781 C 14.4375 29.800781 13.992188 29.359375 13.992188 28.8125 L 13.992188 25.007812 C 13.992188 24.460938 14.4375 24.019531 14.984375 24.019531 C 15.53125 24.019531 15.972656 24.460938 15.972656 25.007812 L 15.972656 28.8125 C 15.972656 29.359375 15.53125 29.800781 14.984375 29.800781 Z M 14.984375 29.800781 "/>
<path style=" stroke:none;fill-rule:nonzero;fill:rgb(95.686275%,69.411767%,17.254902%);fill-opacity:1;" d="M 4.957031 15.972656 L 1.152344 15.972656 C 0.609375 15.972656 0.164062 15.53125 0.164062 14.984375 C 0.164062 14.4375 0.609375 13.992188 1.152344 13.992188 L 4.957031 13.992188 C 5.503906 13.992188 5.945312 14.4375 5.945312 14.984375 C 5.945312 15.53125 5.503906 15.972656 4.957031 15.972656 Z M 4.957031 15.972656 "/>
<path style=" stroke:none;fill-rule:nonzero;fill:rgb(95.686275%,69.411767%,17.254902%);fill-opacity:1;" d="M 28.8125 15.972656 L 25.007812 15.972656 C 24.460938 15.972656 24.019531 15.53125 24.019531 14.984375 C 24.019531 14.4375 24.460938 13.992188 25.007812 13.992188 L 28.8125 13.992188 C 29.359375 13.992188 29.800781 14.4375 29.800781 14.984375 C 29.800781 15.53125 29.359375 15.972656 28.8125 15.972656 Z M 28.8125 15.972656 "/>
<path style=" stroke:none;fill-rule:nonzero;fill:rgb(95.686275%,69.411767%,17.254902%);fill-opacity:1;" d="M 22.074219 8.882812 C 21.820312 8.882812 21.566406 8.785156 21.375 8.59375 C 20.988281 8.207031 20.988281 7.582031 21.375 7.195312 L 24.066406 4.503906 C 24.449219 4.117188 25.074219 4.117188 25.460938 4.503906 C 25.847656 4.890625 25.847656 5.515625 25.460938 5.902344 L 22.769531 8.59375 C 22.578125 8.785156 22.324219 8.882812 22.074219 8.882812 Z M 22.074219 8.882812 "/>
<path style=" stroke:none;fill-rule:nonzero;fill:rgb(95.686275%,69.411767%,17.254902%);fill-opacity:1;" d="M 5.203125 25.75 C 4.953125 25.75 4.695312 25.65625 4.503906 25.460938 C 4.117188 25.074219 4.117188 24.449219 4.503906 24.066406 L 7.195312 21.375 C 7.582031 20.988281 8.207031 20.988281 8.59375 21.375 C 8.980469 21.761719 8.980469 22.386719 8.59375 22.769531 L 5.902344 25.460938 C 5.707031 25.65625 5.457031 25.75 5.203125 25.75 Z M 5.203125 25.75 "/>
<path style=" stroke:none;fill-rule:nonzero;fill:rgb(95.686275%,69.411767%,17.254902%);fill-opacity:1;" d="M 7.894531 8.882812 C 7.640625 8.882812 7.386719 8.785156 7.195312 8.59375 L 4.503906 5.902344 C 4.117188 5.515625 4.117188 4.890625 4.503906 4.503906 C 4.890625 4.117188 5.515625 4.117188 5.902344 4.503906 L 8.59375 7.195312 C 8.980469 7.582031 8.980469 8.207031 8.59375 8.59375 C 8.402344 8.785156 8.148438 8.882812 7.894531 8.882812 Z M 7.894531 8.882812 "/>
<path style=" stroke:none;fill-rule:nonzero;fill:rgb(95.686275%,69.411767%,17.254902%);fill-opacity:1;" d="M 24.761719 25.75 C 24.507812 25.75 24.257812 25.65625 24.066406 25.460938 L 21.375 22.769531 C 20.988281 22.386719 20.988281 21.761719 21.375 21.375 C 21.761719 20.988281 22.386719 20.988281 22.769531 21.375 L 25.460938 24.066406 C 25.847656 24.449219 25.847656 25.074219 25.460938 25.460938 C 25.269531 25.65625 25.015625 25.75 24.761719 25.75 Z M 24.761719 25.75 "/>
</g>
</svg>
