<?xml version="1.0" encoding="UTF-8"?>
<svg xmlns="http://www.w3.org/2000/svg" xmlns:xlink="http://www.w3.org/1999/xlink" width="40px" height="40px" viewBox="0 0 40 40" version="1.1">
<g id="surface1">
<path style=" stroke:none;fill-rule:nonzero;fill:rgb(63.137257%,47.450981%,86.274511%);fill-opacity:1;" d="M 39.933594 11.730469 C 39.933594 11.058594 39.769531 10.464844 39.445312 9.957031 C 39.125 9.457031 38.644531 9.039062 38 8.703125 C 32.683594 5.984375 27.363281 3.261719 22.050781 0.539062 C 20.613281 -0.199219 19.226562 -0.171875 17.800781 0.570312 C 15.6875 1.683594 5.09375 7.082031 1.933594 8.703125 C 0.636719 9.375 0.00390625 10.394531 0.00390625 11.730469 C 0 17.207031 0.00390625 22.6875 0 28.167969 C 0 28.824219 0.15625 29.40625 0.464844 29.90625 C 0.789062 30.417969 1.273438 30.855469 1.933594 31.191406 C 5.089844 32.816406 15.6875 38.210938 17.800781 39.320312 C 19.226562 40.070312 20.613281 40.09375 22.050781 39.355469 C 27.363281 36.632812 32.683594 33.914062 38 31.191406 C 38.660156 30.851562 39.144531 30.417969 39.46875 29.90625 C 39.78125 29.402344 39.933594 28.824219 39.933594 28.167969 C 39.933594 28.167969 39.933594 17.207031 39.933594 11.730469 "/>
<path style=" stroke:none;fill-rule:nonzero;fill:rgb(15.686275%,0%,40.784314%);fill-opacity:1;" d="M 20.027344 19.898438 L 0.464844 29.90625 C 0.789062 30.417969 1.273438 30.855469 1.933594 31.191406 C 5.089844 32.816406 15.6875 38.210938 17.800781 39.320312 C 19.226562 40.070312 20.613281 40.09375 22.050781 39.355469 C 27.363281 36.632812 32.683594 33.914062 38 31.191406 C 38.660156 30.851562 39.144531 30.417969 39.46875 29.90625 L 20.027344 19.898438 "/>
<path style=" stroke:none;fill-rule:nonzero;fill:rgb(22.352941%,0%,56.862748%);fill-opacity:1;" d="M 39.933594 11.730469 C 39.933594 11.058594 39.769531 10.464844 39.445312 9.957031 L 20.027344 19.898438 L 39.46875 29.90625 C 39.78125 29.402344 39.933594 28.824219 39.933594 28.167969 C 39.933594 28.167969 39.933594 17.207031 39.933594 11.730469 "/>
<path style=" stroke:none;fill-rule:nonzero;fill:rgb(100%,100%,100%);fill-opacity:1;" d="M 31.542969 16.152344 L 31.542969 18.027344 L 33.652344 18.027344 L 33.652344 16.152344 L 34.707031 16.152344 L 34.707031 18.027344 L 36.808594 18.027344 L 36.808594 18.960938 L 34.707031 18.960938 L 34.707031 20.832031 L 36.808594 20.832031 L 36.808594 21.769531 L 34.707031 21.769531 L 34.707031 23.640625 L 33.652344 23.640625 L 33.652344 21.769531 L 31.542969 21.769531 L 31.542969 23.640625 L 30.492188 23.640625 L 30.492188 21.769531 L 28.386719 21.769531 L 28.386719 20.832031 L 30.492188 20.832031 L 30.492188 18.960938 L 28.386719 18.960938 L 28.386719 18.027344 L 30.492188 18.027344 L 30.492188 16.152344 Z M 33.652344 18.960938 L 31.542969 18.960938 L 31.542969 20.832031 L 33.652344 20.832031 Z M 33.652344 18.960938 "/>
<path style=" stroke:none;fill-rule:nonzero;fill:rgb(100%,100%,100%);fill-opacity:1;" d="M 20.074219 6.753906 C 25.5625 6.753906 30.359375 9.402344 32.921875 13.34375 L 32.898438 13.304688 L 26.4375 16.617188 C 25.167969 14.699219 22.832031 13.40625 20.15625 13.378906 L 20.074219 13.378906 C 15.992188 13.378906 12.679688 16.320312 12.679688 19.945312 C 12.679688 21.136719 13.035156 22.246094 13.65625 23.207031 C 14.925781 25.183594 17.324219 26.515625 20.074219 26.515625 C 22.835938 26.515625 25.242188 25.167969 26.511719 23.171875 L 26.484375 23.21875 L 32.933594 26.539062 C 30.390625 30.449219 25.664062 33.089844 20.234375 33.144531 L 20.074219 33.144531 C 14.5625 33.144531 9.753906 30.476562 7.195312 26.511719 C 5.945312 24.582031 5.230469 22.339844 5.230469 19.945312 C 5.230469 12.660156 11.871094 6.753906 20.074219 6.753906 Z M 20.074219 6.753906 "/>
</g>
</svg>
