<?xml version="1.0" encoding="UTF-8"?>
<svg xmlns="http://www.w3.org/2000/svg" xmlns:xlink="http://www.w3.org/1999/xlink" width="30px" height="30px" viewBox="0 0 30 30" version="1.1">
<g id="surface1">
<path style=" stroke:none;fill-rule:nonzero;fill:rgb(0%,0%,0%);fill-opacity:1;" d="M 29.085938 20.152344 C 28.933594 20.015625 28.707031 19.984375 28.527344 20.082031 C 23.3125 22.847656 16.914062 21.007812 13.957031 15.894531 C 11.007812 10.78125 12.617188 4.324219 17.617188 1.183594 C 17.789062 1.078125 17.878906 0.871094 17.835938 0.667969 C 17.789062 0.464844 17.625 0.316406 17.421875 0.289062 C 14.175781 -0.128906 10.96875 0.519531 8.136719 2.152344 C 4.710938 4.132812 2.257812 7.324219 1.230469 11.144531 C 0.210938 14.96875 0.734375 18.960938 2.714844 22.386719 C 4.691406 25.816406 7.886719 28.265625 11.707031 29.289062 C 12.984375 29.632812 14.28125 29.800781 15.566406 29.800781 C 18.132812 29.800781 20.667969 29.128906 22.949219 27.808594 C 25.785156 26.171875 27.949219 23.71875 29.207031 20.703125 C 29.285156 20.511719 29.238281 20.292969 29.085938 20.152344 Z M 29.085938 20.152344 "/>
</g>
</svg>
